<?xml version="1.0" encoding="utf-8"?>
<!-- Generator: Adobe Illustrator 21.0.0, SVG Export Plug-In . SVG Version: 6.00 Build 0)  -->
<svg version="1.1"
	 id="svg2" inkscape:version="0.92.1 unknown" sodipodi:docname="cpm.svg" xmlns:cc="http://creativecommons.org/ns#" xmlns:dc="http://purl.org/dc/elements/1.1/" xmlns:inkscape="http://www.inkscape.org/namespaces/inkscape" xmlns:rdf="http://www.w3.org/1999/02/22-rdf-syntax-ns#" xmlns:sodipodi="http://sodipodi.sourceforge.net/DTD/sodipodi-0.dtd" xmlns:svg="http://www.w3.org/2000/svg"
	 xmlns="http://www.w3.org/2000/svg" xmlns:xlink="http://www.w3.org/1999/xlink" x="0px" y="0px" viewBox="0 0 1104 960"
	 style="enable-background:new 0 0 1104 960;" xml:space="preserve">
<sodipodi:namedview  bordercolor="#666666" borderopacity="1" fit-margin-bottom="0" fit-margin-left="0" fit-margin-right="0" fit-margin-top="0" gridtolerance="10" guidetolerance="10" id="namedview4" inkscape:current-layer="layer1" inkscape:cx="1047.3563" inkscape:cy="5493.693" inkscape:guide-bbox="true" inkscape:pageopacity="0" inkscape:pageshadow="2" inkscape:window-height="744" inkscape:window-maximized="1" inkscape:window-width="1317" inkscape:window-x="49" inkscape:window-y="24" inkscape:zoom="0.042548079" objecttolerance="10" pagecolor="#ffffff" showgrid="false" showguides="false">
	<sodipodi:guide  id="guide4499" inkscape:locked="false" orientation="1,0" position="1782.8019,9399.9842"></sodipodi:guide>
	<sodipodi:guide  id="guide4501" inkscape:locked="false" orientation="0,1" position="1383.2539,8724.278"></sodipodi:guide>
	<sodipodi:guide  id="guide4503" inkscape:locked="false" orientation="1,0" position="2050.1465,8797.7243"></sodipodi:guide>
	<sodipodi:guide  id="guide4505" inkscape:locked="false" orientation="0,1" position="2654.3756,9665.0061"></sodipodi:guide>
	<sodipodi:guide  id="guide4507" inkscape:locked="false" orientation="0,1" position="2795.6371,7778.7488"></sodipodi:guide>
	<sodipodi:guide  id="guide4509" inkscape:locked="false" orientation="1,0" position="3875.8725,8231.6168"></sodipodi:guide>
	<sodipodi:guide  id="guide4511" inkscape:locked="false" orientation="1,0" position="4112.6934,9457.2685"></sodipodi:guide>
	<sodipodi:guide  id="guide4513" inkscape:locked="false" orientation="1,0" position="3963.1223,9120.7336"></sodipodi:guide>
	<sodipodi:guide  id="guide4515" inkscape:locked="false" orientation="1,0" position="4328.7405,8967.0078"></sodipodi:guide>
	<sodipodi:guide  id="guide4517" inkscape:locked="false" orientation="1,0" position="3081.3329,9135.5774"></sodipodi:guide>
	<sodipodi:guide  id="guide4519" inkscape:locked="false" orientation="0,1" position="2625.2923,8867.2937"></sodipodi:guide>
	<sodipodi:guide  id="guide4521" inkscape:locked="false" orientation="0,1" position="2359.3882,8572.3064"></sodipodi:guide>
	<sodipodi:guide  id="guide4523" inkscape:locked="false" orientation="1,0" position="2546.352,9099.9598"></sodipodi:guide>
</sodipodi:namedview>
<text transform="matrix(1 0 0 1 -3489.1821 9084.2324)" style="font-family:'Arial-BoldMT'; font-size:96px;">CPM</text>
<text transform="matrix(1 0 0 1 -3489.1821 9084.2324)" style="fill:none;stroke:#000000;stroke-width:5.537; font-family:'Arial-BoldMT'; font-size:96px;">CPM</text>
<text transform="matrix(1 0 0 1 -3473.6016 8797.5547)" style="font-family:'Arial-BoldMT'; font-size:96px;">CESAR</text>
<text transform="matrix(1 0 0 1 -3458.0215 8913.8877)" style="font-family:'Arial-BoldMT'; font-size:96px;">cesar</text>
<path d="M644.1,295.6c-4-3.8-8.6-6.7-13.8-8.8c-5.3-2.1-10.9-3.2-16.8-3.2h-59.8v82.6h59.8c5.9,0,11.5-1.1,16.8-3.2
	c5.3-2.1,9.9-5.1,13.8-8.8c4-3.8,7.1-8.1,9.4-13c2.3-4.9,3.5-10.3,3.5-16.2c0-5.9-1.2-11.3-3.5-16.2
	C651.2,303.7,648,299.4,644.1,295.6z"/>
<path d="M551.2,462.5v119.1h96.6V459.9c-8.8,1.7-17.7,2.6-26.8,2.6H551.2z"/>
<path d="M840,203.4c-3,0-5.6,1.5-7.9,4.4l-70.4,115.2c0,1,0.1,2,0.1,3c0,19.1-3.9,36.9-11.6,53.4c-7.7,16.5-18.1,30.9-31.1,43.3
	c-10.3,9.7-21.8,17.8-34.5,24.3l45.3,73.7c1,1.9,2.6,3.3,4.9,3.9c2.3,0.7,4.5,1,6.4,1c1.6,0,3.6-0.3,5.9-1c2.3-0.6,4-2,4.9-3.9
	l82.1-133.5v194.5h100.4V203.4H840z"/>
<path d="M288.1,320.6c8.6-9.2,18.8-16.5,30.6-21.8c11.9-5.3,24.7-7.9,38.6-7.9c21.1,0,41.2,6.8,60.3,20.3l30.7-26.8V209
	c-5.7-2.8-11.4-5.4-17.3-7.8c-23.7-9.4-48.4-14.1-74.2-14.1c-28.3,0-54.8,5.4-79.3,16.1c-24.6,10.7-46,25.4-64.3,44
	C195,265.8,180.5,287.4,170,312c-9,21-14.2,43.2-15.5,66.5h-0.4c0,2,0.1,4,0.1,5.9c-0.1,2-0.1,3.9-0.1,5.9h0.4
	c1.3,23.3,6.4,45.5,15.5,66.5c10.5,24.5,25,46.1,43.3,64.8c18.3,18.6,39.7,33.3,64.3,44c24.5,10.7,51,16.1,79.3,16.1
	c25.7,0,50.4-4.7,74.2-14.1c5.9-2.3,11.7-4.9,17.3-7.8v-75.4l-30.7-26.8c-19.1,13.5-39.2,20.3-60.3,20.3c-13.8,0-26.7-2.6-38.6-7.9
	c-11.9-5.3-22.1-12.5-30.6-21.8c-8.6-9.2-15.3-19.9-20.3-31.9c-4.2-10.2-6.6-20.8-7.2-31.9c0.6-11,3-21.7,7.2-31.9
	C272.8,340.5,279.6,329.9,288.1,320.6z"/>
</svg>
